<?xml version="1.0" encoding="UTF-8"?>
<svg id="Layer_1" data-name="Layer 1" xmlns="http://www.w3.org/2000/svg" viewBox="0 0 1338 296.69">
  <defs>
    <style>
      .cls-1 {
        fill: #39d6da;
      }

      .cls-2 {
        fill: #ef3383;
      }

      .cls-3 {
        fill: #eee96a;
      }

      .cls-4 {
        fill: #ffb8dc;
      }
    </style>
  </defs>
  <path class="cls-2" d="m1338,296.69V68.31c-34-1-71.54,19.1-78.68,32.9-9.52,19.09-46.58,34.86-57.52,17.55-7.63-12.05-2.37-37.31-8.07-56.3-5.7-18.99-19.76-32.08-33.31-28.65-21.26,5.27-24.83,23.76-17.87,43.38,7.28,20.75,28.26,40.78,22.07,62.47-4.22,14.73-24.61,22.76-40.43,18.81-15.82-3.94-43.58-8.54-55.41-21.69-17.08-18.83-13.29-40.68-11.83-54.49,3.19-28.99.73-58.02-30.03-52.02-30.76,5.99-21.61,33.43-10,54.39,9.88,17.83,10.65,34.71-1.81,58.67-8.44,16.31-29.5,24.65-45.08,14.34-15.95-10.49-37.09-15.91-67.23-.51-24.49,12.42-24.55,39.14-58.61,28.2-19.35-6.13-62.47-11.22-61.43-47.05.81-28.57,8.97-37.72,11.83-54.98,2.48-15.38-10.16-36.46-29.88-35.38-22.72,1.18-27.23,28.08-22.05,39.91,5.68,12.84,16.03,24.69,21.46,48.2,5.58,23.88-4.59,41.43-26.29,42.26-25.44.65-28.79-65.59-89.53-60.72-51.78,3.37-39.18,41.12-78.88,45.36-33.94,3.16-45.65-22.09-73.67-24.45-25.83-2.05-85.31,44.51-106.03-22.15-10.08-34.02,12.68-43.74,16.78-60.17,3.35-13.31-8.07-35.32-23.84-37.78-19.86-3.12-34.08,14.04-32.1,29.19,1.89,15.7,18.52,39.85,4.4,62.16-8.54,13.61-42.14,16.7-84.8-3.29-36.21-16.58-121.38,2.58-133.74-17.27-15.28-25,6.27-34.45,20.21-58.86,13.35-23.51-38.2-45.65-45.36-16.17-7.16,29.48,16.51,44.21-9.13,61.96-20.29,14.1-73.26-9.52-102.15-7.55v228.13h1338Z"/>
  <path class="cls-3" d="m1043.78,235.52c7.18,2.98,14.83.61,18.22-6.84,7.1-15.6,13.92-31.34,20.09-47.33,3.21-8.32-2.09-18.66-11.28-19.23-.8-.06-1.6-.02-2.39.1-6.82,1.05-11.83,8.24-14.99,13.33-8.03,13.09-11.02,28.44-16.58,42.56-3.08,7.69.2,14.65,6.92,17.41Z"/>
  <path class="cls-3" d="m1284.22,233.9c-16.29,1.97-32.54,4.38-48.77,6.86-8.17.92-14.05,8.3-13.12,16.47.02.17.04.34.07.51.83,7.49,7.61,12.84,16.29,11.85,16.8-1.97,33.52-4.42,47.03-6.25,12.68-3.06,17.61-9.39,16.45-17.75-1.12-7.89-8.24-12.88-17.95-11.69Z"/>
  <path class="cls-3" d="m767.7,262.22c-1.34,7.51,3.66,14.67,11.16,16.01,17.39,2.9,34.88,5.46,52.4,7.43.14.02.28.04.41.06,7.73.96,14.77-4.52,15.74-12.24.97-7.79-4.31-14.98-12.03-16.39-16.56-2.86-33.35-5.03-49.3-7.36-10.49-.24-17.26,4.57-18.38,12.46,0,0,0,.01,0,.02Z"/>
  <path class="cls-3" d="m199.39,204.3c-6.41,4.85-8.3,11.83-3.57,18.4,10.55,14.79,21.69,29.24,32.83,43.52,2.07,2.62,6.05,3.73,7.47,4.56,13.63-.26,20.77-11.54,14.47-20.94-10.12-15.07-21.12-29.58-32.34-43.88-4.79-6.11-12.92-6.17-18.87-1.66Z"/>
  <path class="cls-3" d="m621.24,192.06c.61-.02,1.22-.08,1.82-.18,17.09-1.85,34.06-4.21,50.92-7.08,7.76-.99,13.24-8.08,12.26-15.84,0-.07-.02-.14-.03-.22-1.18-7.75-8.22-13.15-17.96-12.76-6.84,1.1-14.91,2.56-23.01,3.71-8.1,1.14-16.29,1.87-24.41,2.96-9.58,1.26-14.83,7.18-14.2,15.78.28,7.8,6.83,13.91,14.63,13.63Z"/>
  <path class="cls-3" d="m135.2,159.2c1.84,6.79,8.4,11.19,15.38,10.29,16.8-2.11,33.52-4.36,50.31-6.96,9.05-1.4,14.4-8.16,13.49-15.89-.91-7.73-7.3-13-18.04-12.86-12.48,1.7-26.54,3.55-40.6,5.56-4.2.37-8.33,1.24-12.32,2.58-7.06,2.82-10.02,9.72-8.2,17.27Z"/>
  <path class="cls-3" d="m567.76,222.94c-4.55,4.93-8.83,10.11-12.82,15.5h0c-7,9.35-14.36,18.5-20.39,28.44-6.23,10.29.69,22.86,11.67,21.69,4.81-.85,9.17-3.35,12.34-7.06,10.06-11.99,19.46-24.53,28.77-37.11,2.23-3.04,3.08-7.08,4.56-10.65-.35-7.26-4.73-11.04-9.86-13.8-5.13-2.76-10.43-1.12-14.28,3Z"/>
  <path class="cls-1" d="m912.8,279.93c6.47-5.05,12.66-10.43,18.93-15.78,6.84-5.78,13.92-11.3,20.37-17.49,9.43-9.01,1.7-22.05-8.2-23.86-3.74-.7-7.6.33-10.49,2.8-13.31,10.81-26.58,21.69-39.44,33.09-6.96,6.19-7.08,13.69-1.74,19.86,5.76,6.61,13.04,7.22,20.57,1.38Z"/>
  <path class="cls-1" d="m429.62,260.49h0c-13.8-12.44-28.16-24.47-43.01-35.69-9.01-6.82-19.48,2.21-20.21,11.83-.36,4.18,1.33,8.27,4.54,10.98,13.09,11.46,26.39,22.68,39.99,33.52,5.75,4.62,14.15,3.8,18.89-1.85,4.99-5.52,5.64-13.55-.2-18.79Z"/>
  <path class="cls-1" d="m753.32,196c-11.16,11.32-22.11,22.86-32.83,34.63-2.97,3.17-4.32,7.53-3.67,11.83,1.5,10.35,13.41,18.89,22.8,9.23,11.44-11.83,22.78-23.66,34.04-35.5,7.3-7.75,7.69-15.6,1.32-21.69-6.7-6.33-14.22-6.17-21.65,1.5Z"/>
  <path class="cls-1" d="m1146.44,257.35c2.9,3.2,7.16,4.82,11.46,4.36,10.43-1.28,18.56-15.24,9.39-24.93-11.12-11.73-22.24-23.51-33.52-35-6.82-6.92-16.13-7.3-22.03-1.46-5.9,5.84-5.92,14.45.61,21.53,11.07,12.09,22.43,23.93,34.1,35.5Z"/>
  <path class="cls-1" d="m1293.43,128.44c-5.52-7.26-13.02-8.3-19.62-3.57-7.06,5.01-8.95,12.8-3.67,20.27,9.76,13.8,19.98,27.35,30.49,40.62,2.68,3.7,7,5.86,11.58,5.78,10.06-.28,19.17-11.62,11.83-21.69-10.08-13.9-20.17-27.81-30.61-41.41Z"/>
  <path class="cls-1" d="m77.83,110.06c-14.1,4.87-27.88,10.61-41.77,16.09-7.65,2.67-11.86,10.86-9.58,18.64,2.23,7.59,10.19,11.93,17.78,9.69.26-.08.51-.16.76-.25,16.15-5.8,32.04-12.34,46.22-17.89,7.67-3.65,12.15-8.42,10.75-14.81-1.05-4.73-4.54-10.69-8.56-12.54-4.02-1.85-10.73-.63-15.6,1.06Z"/>
  <path class="cls-1" d="m94.44,198.19c-4.73,6.55-3.5,15.65,2.78,20.73,12.57,10.52,25.27,20.89,38.1,31.12,3.08,2.45,7.05,3.46,10.92,2.8,10.63-1.68,19.6-14.24,9.54-23.13-13.37-11.83-27-23.47-41.04-34.51-7.08-5.6-15.34-3.81-20.31,3Z"/>
  <path class="cls-1" d="m518.12,227.08c6.43,8.52,13.65,9.96,21.18,4.58,6.55-4.65,7.63-13.41,1.97-21.24-9.29-12.94-18.66-25.85-28.57-38.32-2.92-4.13-7.7-6.55-12.76-6.47-7.81.37-13.84,7.01-13.46,14.82.15,3.03,1.26,5.92,3.17,8.27,9.45,12.8,18.87,25.66,28.48,38.36Z"/>
  <path class="cls-1" d="m266.5,143.19c6.35,16.05,12.92,31.93,20.35,47.39,1.97,3.94,7.34,6.35,9.23,7.89,13.11.18,19.44-9.31,15.38-19.5-6.07-15.24-12.86-30.21-19.37-45.36-3.45-8.01-10.77-11.6-17.89-8.81-7,2.45-10.69,10.11-8.24,17.11.15.44.33.87.53,1.29Z"/>
  <path class="cls-4" d="m994.62,209.21l-.08.16c-9.37-7.53-19.98-3.17-22.01,9.21-.72,3.89.15,7.9,2.43,11.14,9.47,13.07,19.21,25.93,28.91,38.83,5.09,6.74,12.82,8.16,19.72,3.75,6.01-3.83,8.8-11.93,4.38-18.3-9.47-13.92-20.25-34.29-33.35-44.78Z"/>
  <path class="cls-4" d="m837.41,215.94c-5.23,2.48-9.29,6.9-8.09,13,1.08,5.54,3.55,9.05,6.94,11.04,15.03,8.87,48.33-11.83,61.13-17.22,7.57-3.19,9.62-11.42,6.37-19.11-2.98-7.06-10.16-10.21-18.04-7.38-8.64,3.1-17.14,6.65-25.64,10.1-7.59,3.04-15.28,5.99-22.68,9.56Z"/>
  <path class="cls-4" d="m60.24,174.25l-.14.16c-7.89-3.37-15.16.35-19.35,9.86-3.94,8.89-7.89,17.75-11.67,26.62-3.1,7.26-8.64,15.91-8.42,23.49.14,4.59,2.71,8.76,6.74,10.94,8.6,5.44,17.33,1.46,21.2-7.59,6.07-14.16,11.83-28.42,17.75-42.61,4.18-9.62,1.79-17.51-6.11-20.86Z"/>
  <path class="cls-4" d="m334.14,219.11l-.08.12c-6.94-5.01-14.97-3.21-21.36,4.97-7.04,9.03-14.14,18.02-20.82,27.31-4.42,6.13-8.18,12.74-11.02,17.24.26,13.25,15.4,24.91,25.64,11.62,10.23-13.29,19.94-26.11,29.58-39.44,6.05-8.42,5.05-16.78-1.93-21.81Z"/>
  <path class="cls-4" d="m1216.37,135.95c-7.04-3.21-14.49-.32-18.26,8.07-6.94,15.42-13.63,30.98-19.86,46.72-2.9,7.34.95,14.49,8.14,17.18h0c2.59,1.1,5.49,1.29,8.2.53,4.1-1.24,7.16-4.95,10.29-9.31,9.39-12.96,12.29-29.72,18.2-44.29,3.51-8.62.67-15.52-6.72-18.89Z"/>
  <path class="cls-4" d="m417.12,224.42l-.08.16c3.91.64,7.87-.71,10.57-3.61,12.6-12.74,25.04-25.64,37.01-38.93,5.07-5.64,4.14-13.17-.79-18.36-4.93-5.19-13.53-6.53-18.95-1.24-13.15,12.82-26.05,25.99-37.96,39.97-7.3,8.5.77,20.49,10.2,22.01Z"/>
  <path class="cls-4" d="m620.57,237.51l-.08.12c1.08,2.86,2.57,5.56,4.42,8.01,10.92,11.83,22.13,23.66,33.41,35.2,6.92,7.14,15.22,8.03,21.12,2.66,6.78-6.15,6.76-14.65-.47-22.46-10.33-11.14-20.84-22.11-31.39-33.03-2.05-2.17-4.43-4-7.06-5.42-8.52-4.5-20.29,3.21-19.94,14.93Z"/>
</svg>