<?xml version="1.0" encoding="UTF-8"?>
<svg id="Layer_1" data-name="Layer 1" xmlns="http://www.w3.org/2000/svg" viewBox="0 0 1315.34 258.25">
  <defs>
    <style>
      .cls-1 {
        fill: #39d6da;
      }

      .cls-2 {
        fill: #ef3383;
      }

      .cls-3 {
        fill: #eee96a;
      }

      .cls-4 {
        fill: #ffb8dc;
      }

      .cls-5 {
        fill: #fff;
        font-family: Dacherry, Dacherry;
        font-size: 218.52px;
      }
    </style>
  </defs>
  <g>
    <path class="cls-2" d="m232.39,184.34c-.76-4.12-2.71-7.92-5.62-10.92-4.1-4.16-9.68-4.75-15.22-2.11-5.77,2.38-9.15,8.41-8.14,14.57,1.97,17.02,3.94,34.04,6.57,50.96,1.32,8.48,6.65,12.42,14.28,12.44,9.09,0,16.13-6.74,15.11-15.52-1.92-16.53-4.24-33-6.96-49.42Z"/>
    <path class="cls-2" d="m386.21,163.66l-29.23-27.33c-3.8-3.42-8.7-5.36-13.8-5.48-7.2-.1-13.67,3.94-13.31,13.8.2,4.93,3.94,8.87,7.53,12.31l27.84,26.84c4.65,4.5,9.86,9.27,16.39,9.62,7.9-.04,14.27-6.47,14.23-14.36,0-.71-.06-1.42-.17-2.12-1.16-5.38-5.38-9.5-9.49-13.27Z"/>
    <path class="cls-2" d="m450.63,46.87h-.02s-26.11-26.76-26.11-26.76c-2.88-3.37-6.39-6.15-10.33-8.18-10.39-4.58-22.03,5.38-18.91,16.33,1.62,5.7,5.92,10.16,10.18,14.34l24.49,24.43c3.35,3.35,6.94,6.84,11.52,8.09,1.84.51,3.77.62,5.66.32,2.95-.45,5.68-1.83,7.79-3.94,3.46-3.56,4.79-8.67,3.51-13.47-1.2-4.26-4.56-7.85-7.77-11.14Z"/>
    <path class="cls-2" d="m67.02,7.08s0,0,0,0h-.02C50.34,4.32,33.47,2.31,17.17.02,8.06-.34,1.59,4.26.25,11.85c-1.34,7.59,2.88,15.22,10.45,16.49,17.39,2.92,34.86,5.48,52.38,7.51,8.01,1.1,15.39-4.5,16.49-12.5.01-.1.03-.2.04-.29.94-7.88-4.69-15.04-12.58-15.97Z"/>
    <path class="cls-2" d="m546.45,122.01h-.08c-18.42,0-33.35,18.69-47.64,30.49-4.08,3.35-8.34,7-9.86,12.03-2.56,8.24,4.73,17.93,13.35,17.75,6.19-.14,11.46-4.36,16.19-8.36l25-21.22c6.25-5.3,12.29-11.83,12.66-18.26.28-4.46-2.25-8.8-9.62-12.42Z"/>
    <path class="cls-2" d="m133.79,48.39c-3.07,2.34-5.6,5.3-7.43,8.7-3.12,6.96,0,15.12,6.95,18.24,2.3,1.03,4.83,1.41,7.32,1.1,5.19-.67,9.52-4.18,13.53-7.57l29.44-24.77c3.12-2.27,5.74-5.17,7.69-8.5.99-2.04,1.47-4.3,1.38-6.57-.06-3.22-1.22-6.32-3.27-8.8-14.75-17.1-44.9,18.85-55.61,28.16Z"/>
    <path class="cls-2" d="m896.48,67.07c-6.49-13.31-13.59-26.46-20.51-39.66l-.06.1c-2.07-3.94-4.42-7.65-5.56-9.6-6.88-5.48-12.84-5.82-17.75-2.33-6.01,4.36-8.32,10.83-4.89,17.75,7.85,15.55,15.99,30.91,24.41,46.07,3.94,7.06,11.83,8.64,18.79,4.85,6.22-3.04,8.81-10.55,5.77-16.77-.07-.14-.13-.27-.21-.4Z"/>
    <path class="cls-2" d="m705.41,113.37l-.06.1c-.26-1.28-.66-2.52-1.2-3.71-2.26-4.24-5.31-8-8.99-11.08-9.86-9.21-20.63-17.57-31.37-25.79-2.95-2.63-6.45-4.57-10.23-5.7-8.32-1.81-18.08,8.54-16.17,16.82.79,3.41,3.59,5.92,6.23,8.2l30.03,25.99c4.34,3.77,8.85,7.61,14.34,9.31,5.48,1.7,12.25.61,15.6-4.04,2-2.96,2.66-6.62,1.83-10.1Z"/>
    <path class="cls-2" d="m1147.4,190.65c-4.08-.88-8.33-.1-11.83,2.17-7.47,4.89-14.61,10.31-21.83,15.58-6.45,4.65-13.15,9.01-19.15,14.2-5.77,4.61-6.72,13.03-2.13,18.81,4.24,5.92,11.56,8.24,17.75,4.08,15.44-10.43,30.49-21.42,45.36-32.58,10.67-8.03,2.48-20.07-8.16-22.26Z"/>
    <path class="cls-2" d="m965.64,132.64c-3.15-3.33-7.66-5.03-12.23-4.61-10.47,1.03-19.03,13.02-9.86,22.78,11.73,12.52,23.47,25.02,35.5,37.21,6.72,6.82,14.22,6.65,20.33.39,5.76-5.92,5.92-14.18-.26-20.71-11.02-11.79-22.07-23.59-33.48-35.06Z"/>
    <path class="cls-2" d="m760.37,205.36l-.06.1c-13.19,4.38-26.33,8.93-39.44,13.55-4.01,1.26-7.88,2.93-11.56,4.97-5.92,3.53-7.3,9.19-5.64,15.58,1.77,6.76,6.8,9.37,13.19,9.74,1.05.05,2.1-.03,3.14-.24,17.35-5.92,34.86-11.56,51.94-18.24,7.14-2.8,9.27-11.04,6.45-17.75-3.04-6.92-10.92-10.29-18.02-7.71Z"/>
    <path class="cls-2" d="m1198.83,109.07v-.1c-3.99-2.98-8.13-5.75-12.4-8.3-10.73-6.76-21.44-13.61-32.32-20.09s-21.81,4.99-20.47,14.99c.48,3.5,2.48,6.61,5.46,8.5,14.71,9.76,29.46,19.54,44.53,28.73,7.06,4.3,14.57,1.97,19.01-4.63,4.14-6.05,2.74-14-3.81-19.09Z"/>
    <path class="cls-3" d="m439.45,116.05c-14.36-6.25-28.81-12.29-43.27-18.3-9.21-3.83-17.1-1.48-20.25,5.92-3.51,8.12-.12,15.38,9.33,19.72,10.65,4.79,21.26,9.66,32.01,14.18,5.92,2.5,12.13,4.4,16.96,6.11,6.88.33,13.05-4.19,14.83-10.85,1.62-6.7-2.11-13.53-9.6-16.78Z"/>
    <path class="cls-3" d="m280.21,63.91c-13.47-12.52-27.75-24.2-42.34-35.38-7.41-5.68-16.45-1.97-20.09,6.7-3.25,7.79.35,13.67,5.92,18.4,12.15,10.27,24.41,20.39,36.99,30.09,3.23,2.5,7.89,3.21,9.86,3.94,13.47-2.94,18.04-15.97,9.66-23.76Z"/>
    <path class="cls-3" d="m578.53,173.18c-7.89-1.6-14.26,3.06-15.78,12.86-2.72,16.66-4.79,33.52-7.28,51.27.07,7.11,5.22,13.16,12.23,14.36,7.53.98,14.44-4.31,15.46-11.83,2.6-16.19,4.85-32.44,7.22-48.67,1.52-8.2-3.71-16.14-11.85-17.98Z"/>
    <path class="cls-3" d="m166.9,175.55h-.02c-8.22-1.97-13.8.22-17.1,7.89-6.51,14.79-12.66,29.74-18.95,44.63-3.71,8.83-1.08,16.68,6.69,20.13,7.04,3.14,15.11-.47,18.77-8.83,6.21-14.12,12.19-28.34,18.16-42.56.8-2.15,1.46-4.35,1.97-6.59.3-8.28-3.19-13.09-9.52-14.67Z"/>
    <path class="cls-3" d="m1105.57,55.77c-1.1-8.14-7.59-13.25-16.74-12.19-16.55,1.97-33.07,4.24-49.54,6.7-8.95,1.36-14.14,8.07-13.19,16.01.95,7.95,7.32,12.94,18.73,12.64,14.81-2.11,31.85-4.18,48.77-7.04,7.49-.78,12.92-7.48,12.14-14.96-.04-.39-.1-.78-.17-1.17Z"/>
    <path class="cls-3" d="m693.19,4.3c-16.76,1.97-33.52,4.12-50.17,6.76-9.51,1.52-14.12,8.05-13.15,16.76.89,8.16,6.74,12.54,18.75,12.29,14.73-1.97,31.73-4.08,48.61-6.92,7.78-1.25,13.07-8.57,11.83-16.35-1.09-7.75-8.08-13.27-15.87-12.54Z"/>
    <path class="cls-3" d="m1211.96,215.01c-2.48-16.47-5.32-32.89-8.36-49.3-1.66-8.91-8.54-13.8-16.43-12.64-7.89,1.16-12.7,7.73-12.01,19.15,2.58,14.71,5.25,31.67,8.66,48.49,1.05,7.47,7.96,12.68,15.43,11.64.37-.05.73-.12,1.09-.2,8.18-1.46,12.98-8.12,11.6-17.22l.02.08Z"/>
    <path class="cls-3" d="m776.66,81.07c-2.37-2.98-6.78-4.34-8.52-5.38-13.51.3-20.9,13.05-14.42,22.13,10.21,14.34,21.14,28.2,32.24,41.87,4.35,5.96,12.7,7.26,18.65,2.91.22-.16.44-.33.65-.51,6-4.67,7.23-13.26,2.78-19.42-10.14-14.12-20.6-27.98-31.39-41.59Z"/>
    <path class="cls-1" d="m590.7,46.56c-2.48-3.2-5.65-5.8-9.27-7.61-13.15-7.78-26.6-15.09-40.37-21.91-14.24-7.1-21.85,3.61-19.56,14.36,1.29,5.78,5.07,10.69,10.31,13.43l33.84,18.38c4.52,2.46,9.37,4.99,14.51,4.65,7.6-.57,13.3-7.2,12.73-14.8-.17-2.32-.93-4.55-2.2-6.5Z"/>
    <path class="cls-1" d="m408.29,214.59c-16.74,1.97-33.48,4.12-50.15,6.76-9.51,1.52-14.12,8.05-13.17,16.74.91,8.18,6.76,12.56,18.77,12.31,14.73-2.05,31.73-4.1,48.61-6.94,0,0,0,0,0,0,7.78-1.24,13.07-8.55,11.83-16.33-1.08-7.76-8.09-13.29-15.89-12.54Z"/>
    <path class="cls-1" d="m659.94,177.62c-13.65-11.95-27.49-23.72-41.71-35.02h0c-5.64-4.48-13.39-2.78-18.18,2.58-4.79,5.36-5.4,13.63-.1,18.32,14.12,12.54,28.44,24.99,43.62,36.15,8.66,6.37,20.53-1.3,20.59-14.14-.79-1.56-1.7-5.64-4.22-7.89Z"/>
    <path class="cls-1" d="m79.38,205.64c-3.66-6.95-12.15-9.78-19.25-6.41-15.11,7.51-30.13,15.18-44.92,23.31-8.44,4.63-10.57,12.34-6.72,20.21,3.61,7.39,10.59,9.52,21.81,5.25,13.17-6.92,28.5-14.57,43.38-22.95,6.93-3.77,9.49-12.44,5.72-19.36,0-.01-.01-.03-.02-.04Z"/>
    <path class="cls-1" d="m291.08,110.63c-6.88-2.35-12.34.45-16.39,5.7-9.86,12.8-19.4,25.81-28.95,38.85-5.38,7.36-4.93,16.31.71,20.75,7.75,6.07,15.3,5.13,21.87-3.41,9.98-13,19.72-26.21,29.3-39.44,1.4-2.26,2.51-4.67,3.33-7.2-.32-8.44-3.49-13.07-9.88-15.24Z"/>
    <path class="cls-1" d="m90.68,105.84h0c-13.05-11.1-26.23-22.07-39.68-32.68-6.74-5.34-14.53-4.36-19.31,1.44-5.24,5.99-4.63,15.1,1.36,20.34.14.12.29.25.43.37,12.52,10.94,25.28,21.69,38.16,32.2,2.17,1.51,4.55,2.7,7.06,3.53,8.89.53,13.37-2.68,15.95-8.36,2.92-5.84,1.24-12.93-3.98-16.84Z"/>
    <path class="cls-1" d="m1274.02,89.92c6.72,6.8,14.22,6.65,20.35.39,5.74-5.92,5.92-14.18-.28-20.71-11-11.83-22.05-23.66-33.52-35.06-3.17-3.42-7.74-5.2-12.38-4.81-10.51.97-18.83,13.23-9.72,22.95,11.77,12.52,23.51,25.02,35.56,37.23Z"/>
    <path class="cls-1" d="m1302.75,213.63c-18.58,1.97-37.07,4.44-52.97,6.41-9.56,3.02-13.33,9.17-12.19,16.49.99,6.29,6.41,11.62,13.07,10.96,18.34-1.81,36.62-4.12,54.84-6.76,6.39-.93,10.55-8.62,9.72-15.72-.77-6.69-5.92-12.05-12.48-11.38Z"/>
    <path class="cls-1" d="m892,120h.02c-13.53,12.74-26.25,26.39-38.57,40.33-5.03,5.7-3.02,14.53,2.78,19.35,5.51,4.81,13.87,4.27,18.71-1.2,11.96-12.27,23.74-24.71,35.32-37.33,2.74-2.83,4.12-6.71,3.79-10.63-.97-10.21-13.15-18.75-22.05-10.51Z"/>
    <path class="cls-1" d="m976.13,20.88h0c-11.44,11.74-22.76,23.57-33.98,35.5-6.86,7.28-7.18,15.93-1.1,21.91,6.07,5.98,14.65,5.27,21.69-1.97,11.1-11.36,22.09-22.88,32.77-34.61,3.12-3.19,4.67-7.59,4.24-12.03-1.18-10.55-14.28-18.38-23.62-8.8Z"/>
    <path class="cls-1" d="m1096.99,135.53c-11.93,12.33-23.8,24.71-34.9,37.74-2.6,3.78-3.5,8.48-2.47,12.96,2.86,10.73,14.85,13.8,23.09,5.92,12.46-12.11,24.16-25.02,35.91-37.84,2.79-2.69,4.23-6.47,3.94-10.33-1.22-10.43-16.25-18.08-25.58-8.44Z"/>
    <path class="cls-4" d="m377.82,52.57h.08c-13.8-7.89-40.88,23.84-50.35,32.06-3.05,2.3-5.57,5.22-7.41,8.56-3.18,6.81-.24,14.91,6.57,18.09,1.78.83,3.73,1.27,5.7,1.28,6.41,0,11.83-4.3,16.78-8.44,8.4-7.1,16.78-14.21,25.14-21.34,6.29-5.36,12.03-11.83,12.21-18,.12-4.32-2.31-8.46-8.72-12.21Z"/>
    <path class="cls-4" d="m519.55,61.31c-17.1-.22-35.04,21.4-46.36,31.97-2.94,2.4-5.33,5.4-7.02,8.8-2.86,6.94.45,14.88,7.39,17.74,2.54,1.05,5.34,1.3,8.03.72,3.73-1.08,7.18-2.96,10.1-5.52,11.78-9.02,23.09-18.63,33.88-28.81,3.67-3.45,7.51-7.47,7.73-12.5v-.45c-.02-6.67-7.08-11.83-13.74-11.93Z"/>
    <path class="cls-4" d="m31.6,130.25c-1.41-3.96-3.56-7.62-6.33-10.79-7.12-7.12-20.96-3.14-22.6,7.1-.71,4.42,1.03,8.83,2.74,12.98l13.67,33.13c1.97,4.93,4.22,10.06,8.38,13.41,3.63,2.96,8.44,4.05,13,2.94,4.54-1.23,8.06-4.83,9.17-9.41.1-.46.17-.93.22-1.4.41-4.28-1.34-8.6-3.06-12.62-5.1-11.77-10.16-23.55-15.18-35.34Z"/>
    <path class="cls-4" d="m327.64,178.84l.08-.06c-7.38,1.97-10.22,9.15-12.58,15.78l-9.01,25.2c-2.31,6.43-9.25,20.96-5.7,27.79.23.45.5.88.81,1.28,4.42,5.7,16.55,7.89,21.85,3.43,2.17-2.15,3.76-4.81,4.59-7.75,5.44-14.32,10.64-28.72,15.58-43.21,1.41-3.38,2.12-7.02,2.07-10.69-.73-8.14-10-13.76-17.69-11.77Z"/>
    <path class="cls-4" d="m730.54,122.78c-11.06,9.15-36.25,23.07-40.64,37.47-2.31,7.27,1.71,15.03,8.98,17.33,2.58.82,5.35.86,7.96.12,3.62-1.28,6.93-3.3,9.74-5.92,8.14-6.67,16.26-13.38,24.35-20.13,6.13-5.15,16.43-12.78,16.64-21.06-.02-3.12-1.3-6.09-3.55-8.24-6.41-6.8-16.8-5.17-23.49.43Z"/>
    <path class="cls-4" d="m206.34,110.14c-3.59-2.54-8.38-2.29-12.76-1.97-14.24,1.28-60.48-1.68-60.88,19.13-.04,4.86,2.44,9.39,6.55,11.99,5.25,3.23,11.83,2.62,18,1.97l32.14-3.79c7.73-.91,17.12-1.22,21.1-7.89.56-.99,1-2.04,1.3-3.14,1.42-5.21-1.3-13.35-5.46-16.31Z"/>
    <path class="cls-4" d="m470.77,179.96c-1.97-8.85-8.74-13.8-16.64-12.48-7.91,1.32-13.15,8.56-11.99,17.75,1.97,15.78,4.08,31.55,6.31,47.33,1.34,9.51,7.69,15.36,15.58,14.85,8.74-.59,13.8-6.98,13.47-20.23-1.3-9.86-2.98-22.64-4.71-35.5-.55-3.96-1.12-7.93-2.01-11.71Z"/>
    <path class="cls-4" d="m1186.97,25.89c-13.92-3.39-40.09-15.44-54.33-10.47-7.21,2.47-11.06,10.32-8.59,17.53.88,2.56,2.49,4.81,4.64,6.47,3.17,2.15,6.75,3.62,10.51,4.32,10.21,2.63,20.44,5.19,30.66,7.67,7.77,1.97,20.04,5.66,26.82.91,2.51-1.85,4.15-4.65,4.54-7.75,1.68-9.19-5.86-16.62-14.26-18.67Z"/>
    <path class="cls-4" d="m1270.13,132.95v.04c-10.12,13.25-20.23,26.5-29.95,40.05-5.56,7.73-4.28,15.44,2.45,20.43,6.37,4.71,15.01,3.49,20.49-3.59,10.04-13,19.94-26.11,29.42-39.44,2.9-3.66,3.91-8.46,2.72-12.98-2.9-9.98-17.08-15.05-25.12-4.52Z"/>
    <path class="cls-4" d="m1043.93,99.66c-16.55-1.97-33.11-4.12-49.69-5.7-9.47-.89-15.5,4.08-16.41,12.42-.87,7.89,4.54,14.71,13.41,15.87,16.29,2.13,32.62,4.08,48.96,5.52,4.65.66,9.33-.93,12.62-4.28,6.96-7.51,4.2-22.18-8.89-23.84Z"/>
    <path class="cls-4" d="m1024.11,222.34v.08c-17.75,1.97-35.5,4.36-53.24,7.47-7.35.97-12.52,7.72-11.55,15.08.03.23.07.47.11.7,1.12,7.77,7.26,12.62,17.45,12.58,12.31-1.62,26.11-3.35,39.89-5.29,4.44-.41,8.81-1.36,13.02-2.82,6.65-2.37,10.44-9.37,8.8-16.23-1.5-6.84-7.43-12.36-14.47-11.58Z"/>
    <path class="cls-4" d="m782.5,13.94c-5.36,3.1-10.43,6.74-15.6,10.21-8.68,5.82-17.41,11.58-25.91,17.65-10.98,7.87-6.19,22.66,3.53,26.03,4.21,1.37,8.82.64,12.4-1.97,13.96-9.09,27.71-18.52,41.29-28.16,7.63-5.42,9.13-13.17,4.67-20.15-4.34-6.82-12.13-8.36-20.39-3.61Z"/>
    <path class="cls-4" d="m881.18,227.8c-17.75-5.7-35.77-10.75-51.11-15.28-10-1.05-15.89,3.08-17.75,10.25-1.62,6.15,1.24,13.21,7.61,15.26,17.53,5.66,35.22,10.85,52.99,15.78,6.21,1.72,13.09-3.67,15.18-10.51,2.01-6.53-.53-13.49-6.92-15.5Z"/>
  </g>
  <text class="cls-5" transform="translate(37.4 216.14)"><tspan x="0" y="0">Falling Donuts!</tspan></text>
</svg>