<svg xmlns="http://www.w3.org/2000/svg" viewBox="0 0 1378.93 1173.72">
  <defs>
    <style>
      .cls-1 {
        fill: #39d6da;
      }

      .cls-2 {
        fill: #ef3383;
      }

      .cls-3 {
        fill: #eee96a;
      }

      .cls-4 {
        fill: #ffb8dc;
      }
    </style>
  </defs>
  <path class="cls-4" d="m69.06,19.27c-4.8-7.5-11.7-13.42-19.85-17.02-11.42-4.91-22.9-1.59-31.7,8.06-9.47,9.31-11.27,23.92-4.35,35.26,17.55,31.96,35.1,63.91,53.85,95.15,9.41,15.65,23.07,19.15,38.13,13.06,17.92-7.3,26.38-26.24,17.31-42.71-17.05-31.03-34.85-61.63-53.39-91.8Z"/>
  <path class="cls-2" d="m65.29,293.71c-6.35-6.24-14.4-10.47-23.14-12.16-12.23-2.23-22.67,3.56-29.1,14.93-7.15,11.19-5.65,25.83,3.63,35.34,24.24,27.23,48.48,54.47,73.73,80.73,12.67,13.16,26.76,13.52,40.08,4.22,15.83-11.11,19.85-31.47,7.34-45.5-23.54-26.44-47.72-52.3-72.53-77.57Z"/>
  <path class="cls-3" d="m169.22,621.72c4.82-7.49,7.32-16.23,7.19-25.13-.3-12.43-8.1-21.48-20.55-25.45-12.41-4.72-26.44-.27-33.86,10.75-21.73,29.27-43.46,58.55-64.03,88.62-10.3,15.08-7.78,28.95,4.03,40.1,14.1,13.24,34.85,13.03,46.04-2.08,21.09-28.43,41.48-57.37,61.18-86.81Z"/>
  <path class="cls-1" d="m139.41,894.2c8.56-2.45,16.21-7.37,21.98-14.15,7.97-9.54,8.08-21.48,1.34-32.68-6.22-11.74-19.7-17.64-32.54-14.26-35.64,7.67-71.28,15.35-106.58,24.38-17.69,4.54-24.95,16.63-23.42,32.8,1.87,19.25,17.6,32.78,35.97,28.8,34.61-7.46,69.02-15.76,103.24-24.9Z"/>
  <path class="cls-3" d="m155.71,1129.68c8.76,1.62,17.79.61,25.98-2.88,11.39-5,16.8-15.64,15.75-28.66-.34-13.28-9.78-24.57-22.79-27.25-35.33-9-70.66-18-106.28-25.63-17.86-3.81-29.74,3.78-35.58,18.94-6.9,18.07,1.16,37.19,19.38,41.81,34.31,8.73,68.82,16.62,103.53,23.68Z"/>
  <path class="cls-3" d="m393.48,134.04c8.86.86,17.78-.91,25.64-5.09,10.92-5.95,15.4-17.02,13.24-29.91-1.48-13.2-11.85-23.64-25.04-25.2-35.97-5.94-71.94-11.88-108.09-16.43-18.12-2.27-29.31,6.31-33.82,21.91-5.33,18.6,4.34,36.95,22.89,40,34.93,5.76,69.99,10.67,105.17,14.72Z"/>
  <path class="cls-1" d="m358.81,274.88c6.41-6.18,10.86-14.11,12.79-22.8,2.57-12.16-2.93-22.76-14.13-29.5-10.99-7.45-25.67-6.35-35.43,2.66-27.89,23.48-55.78,46.96-82.73,71.48-13.5,12.3-14.25,26.38-5.32,39.95,10.67,16.13,30.91,20.71,45.28,8.59,27.08-22.81,53.59-46.27,79.53-70.37Z"/>
  <path class="cls-4" d="m344.96,504.45c-4.25-7.83-10.71-14.23-18.57-18.4-11.04-5.72-22.72-3.24-32.19,5.76-10.11,8.61-12.96,23.05-6.88,34.85,15.2,33.14,30.41,66.27,46.86,98.78,8.26,16.29,21.63,20.76,37.09,15.77,18.39-5.99,28.2-24.27,20.34-41.35-14.77-32.17-30.32-63.98-46.64-95.41Z"/>
  <path class="cls-2" d="m366.12,773.13c-5.73-6.81-13.34-11.79-21.89-14.3-11.96-3.38-22.91,1.39-30.38,12.11-8.18,10.46-8.07,25.18.26,35.52,21.55,29.41,43.09,58.82,65.74,87.36,11.36,14.3,25.36,15.99,39.5,8,16.82-9.56,22.75-29.44,11.62-44.6-20.93-28.55-42.55-56.58-64.85-84.1Z"/>
  <path class="cls-2" d="m338.44,1035.1c-1.85-8.71-6.23-16.68-12.58-22.92-8.96-8.62-20.87-9.56-32.51-3.62-12.14,5.38-18.97,18.42-16.49,31.47,5.17,36.09,10.34,72.18,16.89,108.02,3.3,17.96,14.85,26.05,31.08,25.65,19.34-.52,33.93-15.27,31.24-33.88-5.03-35.04-10.91-69.95-17.64-104.72Z"/>
  <path class="cls-2" d="m648.37,70.21c.92-8.86-.8-17.79-4.93-25.67-5.88-10.95-16.92-15.51-29.82-13.43-13.21,1.39-23.72,11.7-25.36,24.87-6.17,35.93-12.35,71.86-17.13,107.98-2.38,18.11,6.12,29.35,21.69,33.96,18.56,5.45,36.98-4.1,40.14-22.64,5.99-34.89,11.12-69.92,15.4-105.08Z"/>
  <path class="cls-2" d="m606.47,418.28c8.9.03,17.62-2.56,25.06-7.45,10.32-6.94,13.75-18.38,10.4-31.01-2.7-13-13.99-22.44-27.27-22.77-36.37-2.57-72.73-5.15-109.15-6.32-18.25-.57-28.6,9.01-31.64,24.96-3.58,19.01,7.76,36.39,26.51,37.7,35.31,2.49,70.68,4.12,106.09,4.89Z"/>
  <path class="cls-3" d="m524,618.58c-6.77,5.79-11.68,13.44-14.11,22.01-3.28,11.99,1.58,22.9,12.36,30.28,10.53,8.09,25.25,7.86,35.52-.56,29.23-21.79,58.45-43.58,86.8-66.47,14.2-11.48,15.78-25.49,7.67-39.56-9.7-16.74-29.63-22.5-44.69-11.25-28.38,21.17-56.23,43.02-83.55,65.55Z"/>
  <path class="cls-4" d="m609.52,844.63c.71-8.88-1.21-17.76-5.52-25.55-6.13-10.82-17.27-15.11-30.12-12.74-13.17,1.69-23.44,12.24-24.78,25.45-5.35,36.06-10.69,72.13-14.64,108.35-1.97,18.16,6.8,29.2,22.47,33.46,18.68,5.02,36.87-4.95,39.61-23.55,5.18-35.02,9.51-70.15,12.98-105.4Z"/>
  <path class="cls-1" d="m598.22,1139.64c8.69-1.95,16.61-6.42,22.77-12.84,8.51-9.06,9.31-20.98,3.24-32.54-5.52-12.08-18.64-18.76-31.65-16.13-36.03,5.59-72.05,11.17-107.82,18.13-17.92,3.5-25.87,15.15-25.29,31.38.74,19.33,15.66,33.75,34.24,30.85,34.98-5.43,69.82-11.71,104.51-18.84Z"/>
  <path class="cls-1" d="m824.08,19.3c-5.79-6.77-13.45-11.67-22.01-14.11-11.99-3.28-22.9,1.59-30.28,12.37-8.09,10.53-7.85,25.25.57,35.52,21.8,29.22,43.6,58.44,66.49,86.79,11.49,14.2,25.5,15.77,39.57,7.66,16.73-9.71,22.49-29.64,11.24-44.69-21.18-28.37-43.03-56.22-65.57-83.54Z"/>
  <path class="cls-4" d="m844.09,290.19c.1-8.9-2.43-17.64-7.26-25.11-6.86-10.37-18.27-13.89-30.93-10.64-13.02,2.6-22.54,13.82-22.97,27.1-2.85,36.35-5.7,72.69-7.15,109.1-.71,18.25,8.79,28.66,24.72,31.83,18.98,3.72,36.45-7.48,37.9-26.22,2.76-35.29,4.66-70.64,5.7-106.05Z"/>
  <path class="cls-1" d="m865.55,581.49c3.69-8.1,4.92-17.11,3.52-25.91-2.08-12.26-11.09-20.09-23.98-22.24-12.96-2.89-26.21,3.52-31.97,15.49-17.31,32.09-34.62,64.17-50.67,96.88-8.03,16.4-3.55,29.77,9.73,39.11,15.86,11.08,36.36,7.9,45.27-8.65,16.8-31.16,32.83-62.72,48.1-94.68Z"/>
  <path class="cls-2" d="m772.53,805.21c-8.04-3.83-17.03-5.19-25.85-3.94-12.29,1.88-20.27,10.77-22.63,23.61-3.1,12.91,3.1,26.26,14.97,32.22,31.8,17.83,63.6,35.66,96.04,52.24,16.27,8.3,29.71,4.04,39.26-9.09,11.34-15.67,8.49-36.22-7.91-45.4-30.88-17.3-62.18-33.85-93.88-49.64Z"/>
  <path class="cls-2" d="m863.82,1122.41c8.64,2.14,17.73,1.67,26.11-1.32,11.66-4.31,17.7-14.61,17.43-27.67.45-13.27-8.3-25.11-21.12-28.56-34.73-11.09-69.46-22.18-104.57-31.92-17.6-4.87-29.92,2-36.64,16.78-7.97,17.63-1.06,37.19,16.86,42.89,33.73,10.76,67.7,20.7,101.93,29.81Z"/>
  <path class="cls-2" d="m1132.99,103.5c8.57-2.4,16.25-7.28,22.06-14.02,8.02-9.5,8.2-21.44,1.53-32.67-6.15-11.77-19.6-17.75-32.46-14.44-35.68,7.47-71.37,14.95-106.71,23.78-17.71,4.44-25.04,16.49-23.61,32.66,1.76,19.26,17.41,32.88,35.81,29.01,34.65-7.27,69.11-15.37,103.38-24.32Z"/>
  <path class="cls-3" d="m1073.85,254.88c-8.26-3.32-17.32-4.13-26.04-2.32-12.15,2.64-19.56,12-21.12,24.98-2.3,13.08,4.72,26.02,16.94,31.23,32.85,15.82,65.69,31.64,99.1,46.17,16.75,7.27,29.9,2.19,38.62-11.52,10.34-16.35,6.23-36.68-10.72-44.82-31.9-15.35-64.16-29.92-96.79-43.71Z"/>
  <path class="cls-2" d="m1065.89,522.01c-3.63-8.13-9.58-15.01-17.1-19.78-10.57-6.55-22.41-4.97-32.54,3.27-10.74,7.81-14.7,21.98-9.54,34.22,12.61,34.21,25.22,68.41,39.13,102.09,6.98,16.87,19.97,22.36,35.76,18.58,18.8-4.56,29.98-22.03,23.46-39.67-12.25-33.21-25.31-66.12-39.17-98.71Z"/>
  <path class="cls-4" d="m1063.25,826.85c1.9-8.7,1.2-17.76-2.02-26.07-4.62-11.54-15.08-17.3-28.13-16.69-13.28-.1-24.88,8.97-27.99,21.88-10.16,35.01-20.32,70.03-29.12,105.38-4.4,17.72,2.8,29.85,17.75,36.18,17.83,7.49,37.21.07,42.43-18,9.86-34,18.88-68.23,27.08-102.69Z"/>
  <path class="cls-3" d="m1094.06,1049.94c2.12-8.65,1.65-17.73-1.36-26.11-4.32-11.66-14.64-17.68-27.7-17.4-13.27-.43-25.1,8.33-28.53,21.16-11.04,34.74-22.08,69.49-31.78,104.61-4.84,17.61,2.04,29.91,16.83,36.62,17.64,7.94,37.19,1.01,42.87-16.92,10.71-33.74,20.6-67.73,29.67-101.97Z"/>
  <path class="cls-1" d="m1366.98,46.26c2.24-8.62,1.89-17.7-1-26.12-4.16-11.72-14.39-17.88-27.45-17.77-13.27-.62-25.21,7.99-28.82,20.77-11.52,34.59-23.04,69.18-33.22,104.16-5.09,17.54,1.63,29.94,16.33,36.85,17.53,8.18,37.17,1.52,43.1-16.32,11.18-33.59,21.53-67.44,31.07-101.55Z"/>
  <path class="cls-2" d="m1321.3,364.62c1.05-8.84-.53-17.8-4.54-25.75-5.71-11.04-16.68-15.76-29.61-13.88-13.23,1.19-23.89,11.33-25.74,24.49-6.72,35.83-13.44,71.66-18.77,107.71-2.66,18.07,5.68,29.44,21.17,34.29,18.48,5.73,37.04-3.54,40.48-22.02,6.52-34.8,12.18-69.74,17-104.83Z"/>
  <path class="cls-4" d="m1346.58,650.83c8.81-1.26,17.06-5.1,23.71-11.02,9.2-8.37,10.93-20.18,5.78-32.19-4.56-12.47-17.11-20.16-30.3-18.55-36.35,2.75-72.71,5.5-108.9,9.64-18.14,2.09-26.98,13.08-27.67,29.3-.77,19.33,12.97,34.87,31.72,33.44,35.3-2.68,70.52-6.22,105.67-10.61Z"/>
  <path class="cls-1" d="m1239.21,882.15c6.93,5.59,15.35,9.02,24.22,9.85,12.39,1.03,22.22-5.75,27.51-17.7,6.03-11.83,3.1-26.26-7.05-34.82-26.77-24.74-53.55-49.49-81.23-73.17-13.89-11.86-27.95-10.85-40.3-.3-14.68,12.6-16.7,33.25-2.88,46,26.01,24.02,52.59,47.4,79.74,70.14Z"/>
  <path class="cls-2" d="m1300.89,1049c7.75-4.38,14.04-10.95,18.08-18.88,5.53-11.14,2.85-22.78-6.31-32.09-8.78-9.96-23.27-12.56-34.97-6.28-32.87,15.77-65.74,31.54-97.96,48.55-16.14,8.54-20.38,21.99-15.13,37.35,6.31,18.29,24.76,27.77,41.7,19.62,31.91-15.32,63.44-31.42,94.59-48.28Z"/>
</svg>